<svg width="180" height="46" viewBox="0 0 180 46" fill="none" xmlns="http://www.w3.org/2000/svg">
<path fill-rule="evenodd" clip-rule="evenodd" d="M16.8113 42.9537H19.8072C19.8072 42.9537 19.9789 32.8402 27.5163 25.729L26.6576 24.9593C26.6576 24.9593 22.3769 28.8521 19.4446 34.4176L19.0693 24.953H17.5364L17.1611 34.4176C14.2288 28.8521 9.9481 24.9593 9.9481 24.9593L9.08941 25.729C16.6268 32.8402 16.8049 42.9537 16.8049 42.9537H16.8113Z" fill="#028848"/>
<path fill-rule="evenodd" clip-rule="evenodd" d="M27.4781 9.16574C27.4781 14.2288 23.3691 18.3378 18.306 18.3378C13.2429 18.3378 9.1403 14.2288 9.1403 9.16574C9.1403 4.10264 13.2429 0 18.306 0C23.3691 0 27.4781 4.10264 27.4781 9.16574Z" fill="#ED1C24"/>
<path fill-rule="evenodd" clip-rule="evenodd" d="M18.3378 24.9275C18.3378 29.9906 14.2352 34.0996 9.1721 34.0996C4.109 34.0996 0 29.9906 0 24.9275C0 19.8644 4.10264 15.7618 9.1721 15.7618C14.2416 15.7618 18.3378 19.8644 18.3378 24.9275Z" fill="#ED1C24"/>
<path fill-rule="evenodd" clip-rule="evenodd" d="M36.6184 24.9275C36.6184 29.9906 32.5094 34.0996 27.4527 34.0996C22.3959 34.0996 18.2806 29.9906 18.2806 24.9275C18.2806 19.8644 22.3896 15.7618 27.4527 15.7618C32.5158 15.7618 36.6184 19.8644 36.6184 24.9275Z" fill="#ED1C24"/>
<path d="M134.993 37.1145H125.693V37.7888H134.993V37.1145Z" fill="#231F20"/>
<path d="M134.013 33.0056H126.737V33.6162H132.779" fill="#231F20"/>
<path d="M132.353 37.1146C132.582 36.7266 132.766 35.8106 132.766 35.1936V33.0056H134.013V34.7993C134.013 35.7406 133.937 36.5866 133.632 37.1209H132.359L132.353 37.1146Z" fill="#231F20"/>
<path d="M91.8609 39.5825V32.9419H93.0949V35.0282H94.1826V35.6389H93.0949V39.5825H91.8609Z" fill="#231F20"/>
<path d="M124.18 32.9419H122.946V39.5825H124.18V32.9419Z" fill="#231F20"/>
<path d="M88.1972 33.0437H86.8742C86.6388 35.3018 85.7165 37.2354 84.2218 38.5203L84.6225 38.9464C85.7483 38.1132 86.6706 36.981 87.2812 35.6452L87.5357 35.0982L87.7901 35.6452C88.4071 36.9746 89.323 38.1132 90.4552 38.9464L90.8559 38.5203C89.3675 37.2418 88.4389 35.3018 88.2035 33.0437H88.1972Z" fill="#231F20"/>
<path d="M102.922 32.9419V38.9528H95.4865V39.5698H104.15V32.9419H102.922Z" fill="#231F20"/>
<path d="M146.397 38.921V39.5889H155.703V38.921H151.664V37.21H150.436V38.921H146.397Z" fill="#231F20"/>
<path d="M153.916 33.0564H147.212V37.3308H154.889V33.9724C154.889 33.4381 154.654 33.0564 153.916 33.0564ZM153.655 36.7456H148.452V33.6734H153.318C153.572 33.6734 153.655 33.7688 153.655 33.9915V36.7456Z" fill="#231F20"/>
<path d="M105.486 37.1018V37.7761H114.791V37.1018H110.752V35.7788H109.525V37.1018H105.486Z" fill="#231F20"/>
<path d="M157.713 37.8524V40.0532C157.713 40.5811 157.948 40.9628 158.68 40.9628H165.021V37.8524H157.707H157.713ZM159.252 40.3585C159.004 40.3585 158.915 40.2631 158.915 40.0405V38.4503H163.819V40.3521H159.246L159.252 40.3585Z" fill="#231F20"/>
<path d="M102.229 33.1328H95.4992V33.7434H102.229V33.1328Z" fill="#231F20"/>
<path d="M99.5637 32.5921H98.1771V33.718H99.5637V32.5921Z" fill="#231F20"/>
<path d="M99.5637 37.687H98.1771V39.1627H99.5637V37.687Z" fill="#231F20"/>
<path d="M95.5629 35.7534C95.5629 37.0001 97.0449 38.0114 98.864 38.0114C100.683 38.0114 102.172 37.0001 102.172 35.7534C102.172 34.5067 100.69 33.5017 98.864 33.5017C97.0385 33.5017 95.5629 34.513 95.5629 35.7534ZM96.7841 35.7534C96.7841 34.7993 97.7191 34.0233 98.8704 34.0233C100.022 34.0233 100.963 34.7993 100.963 35.7534C100.963 36.7075 100.028 37.4771 98.8704 37.4771C97.7128 37.4771 96.7841 36.7011 96.7841 35.7534Z" fill="#231F20"/>
<path d="M174.76 32.9419V38.9528H167.318V39.5698H175.987V32.9419H174.76Z" fill="#231F20"/>
<path d="M174.066 33.1328H167.337V33.7434H174.066V33.1328Z" fill="#231F20"/>
<path d="M171.401 32.5921H170.015V33.718H171.401V32.5921Z" fill="#231F20"/>
<path d="M171.401 37.687H170.015V39.1627H171.401V37.687Z" fill="#231F20"/>
<path d="M167.4 35.7534C167.4 37.0001 168.882 38.0114 170.702 38.0114C172.521 38.0114 174.009 37.0001 174.009 35.7534C174.009 34.5067 172.527 33.5017 170.702 33.5017C168.876 33.5017 167.4 34.513 167.4 35.7534ZM168.622 35.7534C168.622 34.7993 169.557 34.0233 170.702 34.0233C171.846 34.0233 172.788 34.7993 172.788 35.7534C172.788 36.7075 171.853 37.4771 170.702 37.4771C169.55 37.4771 168.622 36.7011 168.622 35.7534Z" fill="#231F20"/>
<path d="M106.312 38.9337H112.775V40.931H113.977V38.3549H106.312V38.9337Z" fill="#231F20"/>
<path d="M113.977 32.8974V36.2241H107.266C106.535 36.2241 106.3 35.8424 106.3 35.3145V32.8974H107.54V34.2141H112.743V32.8974H113.983H113.977ZM112.743 34.7993H107.54V35.2954C107.54 35.5117 107.629 35.6134 107.877 35.6134H112.749V34.7993H112.743Z" fill="#231F20"/>
<path d="M126.698 40.5875C126.698 41.8851 128.339 42.9473 130.368 42.9473C132.398 42.9473 134.039 41.8914 134.039 40.5875C134.039 39.2836 132.391 38.234 130.368 38.234C128.346 38.234 126.698 39.2899 126.698 40.5875ZM127.945 40.5875C127.945 39.6079 129.033 38.8129 130.368 38.8129C131.704 38.8129 132.792 39.6079 132.792 40.5875C132.792 41.567 131.704 42.3558 130.368 42.3558C129.033 42.3558 127.945 41.5607 127.945 40.5875Z" fill="#231F20"/>
<path d="M138.211 35.27V33.648H144.655V33.0628H136.977V35.289C136.977 35.817 137.213 36.205 137.957 36.205H144.661V35.588H138.561C138.307 35.588 138.224 35.4926 138.224 35.27H138.211Z" fill="#231F20"/>
<path d="M137.149 40.5875C137.149 41.8851 138.79 42.9473 140.813 42.9473C142.835 42.9473 144.483 41.8914 144.483 40.5875C144.483 39.2836 142.835 38.234 140.813 38.234C138.79 38.234 137.149 39.2899 137.149 40.5875ZM138.396 40.5875C138.396 39.6079 139.483 38.8129 140.813 38.8129C142.142 38.8129 143.236 39.6079 143.236 40.5875C143.236 41.567 142.148 42.3558 140.813 42.3558C139.477 42.3558 138.396 41.5607 138.396 40.5875Z" fill="#231F20"/>
<path d="M136.169 37.1146V37.7888H145.469V37.1146H141.43V35.6262H140.202V37.1146H136.169Z" fill="#231F20"/>
<path d="M129.3 37.2672V35.4481H130.527V37.2863" fill="#231F20"/>
<path d="M165.995 36.5739H156.695V37.2481H165.995V36.5739Z" fill="#231F20"/>
<path d="M165.009 33.0628H157.732V33.6798H163.775" fill="#231F20"/>
<path d="M163.444 36.6884C163.584 36.1859 163.768 35.8106 163.768 35.1936V33.0628H165.009V34.7993C165.009 35.7406 164.932 36.046 164.716 36.6884H163.444Z" fill="#231F20"/>
<path d="M122.055 33.0564H115.987V33.6671H122.055V33.0564Z" fill="#231F20"/>
<path d="M119.695 33.2663H118.353C118.137 35.3463 117.164 37.2036 115.726 38.5648L116.127 38.9846C117.444 37.9987 118.455 36.6439 119.027 35.0791C119.6 36.6439 120.618 37.9987 121.928 38.9846L122.329 38.5648C120.891 37.2036 119.918 35.3463 119.695 33.2663Z" fill="black"/>
<path d="M63.1488 20.7549V4.0454H66.2528V9.29296H68.9879V10.8386H66.2528V20.7485L63.1488 20.7549Z" fill="#231F20"/>
<path d="M148.522 4.0454H145.424V6.67236H139.661V8.22437H145.424V11.7227H139.661V13.2684H145.424V17.1929L148.522 17.1866V4.0454Z" fill="#231F20"/>
<path d="M171.242 10.934H172.902V22.7394H176V4.0454H172.902V9.37565H171.242V4.0454H168.145V22.7394H171.242V10.934Z" fill="#231F20"/>
<path d="M90.2708 4.0454H93.3684V8.35158H96.2816V9.89723H93.3684V15.3801H90.2708V4.0454Z" fill="#231F20"/>
<path d="M75.2977 22.5741C75.2977 26.2633 79.4194 29.2655 84.4889 29.2655C89.5584 29.2655 93.7055 26.2633 93.7055 22.5741C93.7055 18.8849 89.5711 15.8826 84.4889 15.8826C79.4067 15.8826 75.2977 18.8849 75.2977 22.5741ZM78.4272 22.5741C78.4272 19.6799 81.1495 17.3265 84.4953 17.3265C87.841 17.3265 90.5824 19.6736 90.5824 22.5741C90.5824 25.4745 87.8473 27.8153 84.4953 27.8153C81.1432 27.8153 78.4272 25.4618 78.4272 22.5741Z" fill="#231F20"/>
<path d="M161.173 4.4016H152.974V17.1802H166.224V9.45198C166.224 6.67873 163.953 4.4016 161.173 4.4016ZM163.113 15.6282H156.078V5.95997H159.895C161.663 5.95997 163.107 7.40384 163.107 9.17211V15.6218L163.113 15.6282Z" fill="#231F20"/>
<path d="M53.9258 4.42703H50.5928C50.0077 10.1071 47.6796 14.9794 43.9205 18.2043L44.9318 19.2729C47.7687 17.1866 50.0776 14.3242 51.6233 10.9722L52.2593 9.5919L52.8954 10.9722C54.4411 14.3242 56.75 17.1802 59.5868 19.2729L60.5982 18.2043C56.8454 14.9794 54.511 10.1071 53.9258 4.42703Z" fill="#231F20"/>
<path d="M99.4047 9.73184C99.4047 13.1921 103.119 16.0035 107.686 16.0035C112.253 16.0035 115.987 13.1921 115.987 9.73184C115.987 6.27163 112.26 3.46021 107.686 3.46021C103.113 3.46021 99.4047 6.27163 99.4047 9.73184ZM102.464 9.73184C102.464 7.00311 104.805 4.77687 107.693 4.77687C110.58 4.77687 112.934 6.99675 112.934 9.73184C112.934 12.4669 110.58 14.6868 107.693 14.6868C104.805 14.6868 102.464 12.4669 102.464 9.73184Z" fill="#231F20"/>
<path d="M76.4617 12.4415C75.832 12.4415 75.6157 12.1998 75.6157 11.6464V9.56647H88.0191V4.35707H72.5117V5.89636H84.9151V8.09715H72.5117V11.6973C72.5117 13.033 73.1033 13.9871 74.9606 13.9871H88.3435V12.4415H76.4617Z" fill="#231F20"/>
<path d="M125.318 9.73184C125.318 13.1921 129.033 16.0035 133.6 16.0035C138.167 16.0035 141.9 13.1921 141.9 9.73184C141.9 6.27163 138.179 3.46021 133.6 3.46021C129.02 3.46021 125.318 6.27163 125.318 9.73184ZM128.384 9.73184C128.384 7.00311 130.731 4.77687 133.612 4.77687C136.494 4.77687 138.854 6.99675 138.854 9.73184C138.854 12.4669 136.5 14.6868 133.612 14.6868C130.725 14.6868 128.384 12.4669 128.384 9.73184Z" fill="#231F20"/>
<path d="M118.099 4.0454V19.2283H100.085V20.774H121.196V4.0454H118.099Z" fill="#231F20"/>
<path d="M133.721 26.3459C133.091 26.3459 132.875 26.1042 132.875 25.5508V24.2151H148.554V19.2983H129.771V20.8376H145.456V22.7458H129.771V25.6017C129.771 26.9375 130.362 27.8979 132.219 27.8979H148.884V26.3459H133.727H133.721Z" fill="#231F20"/>
<path d="M81.493 35.1618H44.741V35.7025H81.493V35.1618Z" fill="#231F20"/>
</svg>
